<?xml version="1.0" encoding="UTF-8"?>
<svg id="Layer_2" data-name="Layer 2" xmlns="http://www.w3.org/2000/svg" viewBox="0 0 1358.69 158.27">
  <defs>
    <style>
      .cls-1, .cls-2 {
        stroke-width: 0px;
      }

      .cls-2 {
        fill: #002797;
      }
    </style>
  </defs>
  <g id="Layer_1-2" data-name="Layer 1">
    <g>
      <g>
        <g>
          <path class="cls-1" d="m278.24,129.75l-19.87-28.69h-21.92v28.69h-23.84V26.75h44.58c27.52,0,44.73,14.27,44.73,37.38,0,15.45-7.8,26.78-21.19,32.52l23.1,33.11h-25.6Zm-22.37-83.58h-19.42v35.9h19.42c14.57,0,21.92-6.77,21.92-17.95s-7.36-17.95-21.92-17.95Z"/>
          <path class="cls-1" d="m347.25,84.43V26.75h23.84v56.8c0,19.57,8.53,27.66,22.95,27.66s22.95-8.09,22.95-27.66V26.75h23.54v57.68c0,30.31-17.36,47.09-46.64,47.09s-46.64-16.77-46.64-47.09Z"/>
          <path class="cls-1" d="m585.92,101.65c0,17.8-14.13,28.1-41.2,28.1h-53.27V26.75h50.32c25.75,0,38.99,10.74,38.99,26.78,0,10.3-5.3,18.25-13.68,22.66,11.48,3.68,18.83,12.51,18.83,25.46Zm-70.78-56.94v24.28h23.69c11.62,0,17.95-4.12,17.95-12.21s-6.33-12.07-17.95-12.07h-23.69Zm46.79,54.44c0-8.68-6.62-12.8-18.98-12.8h-27.81v25.46h27.81c12.36,0,18.98-3.83,18.98-12.65Z"/>
          <path class="cls-1" d="m631.38,26.75h23.84v103h-23.84V26.75Z"/>
          <path class="cls-1" d="m771.9,129.75l-24.87-35.76-24.43,35.76h-27.37l38.11-52.38-36.2-50.62h27.08l23.69,33.4,23.25-33.4h25.75l-35.9,49.74,38.4,53.27h-27.52Z"/>
        </g>
        <g>
          <polygon class="cls-1" points="940.38 26.76 884.46 84.27 884.46 26.76 869.74 26.76 869.74 129.74 884.46 129.74 884.46 103.1 957.13 26.76 940.38 26.76"/>
          <polygon class="cls-1" points="922.15 84 903.29 84 942.72 129.74 959.96 129.74 922.15 84"/>
          <path class="cls-1" d="m1000.56,85.31V26.75h14.71v57.97c0,22.81,10.45,33.11,28.99,33.11s29.13-10.3,29.13-33.11V26.75h14.27v58.56c0,29.87-16.33,45.61-43.55,45.61s-43.55-15.74-43.55-45.61Z"/>
          <path class="cls-1" d="m1233.77,101.94c0,17.66-13.39,27.81-39.43,27.81h-49.14V26.75h46.2c23.69,0,36.93,10.01,36.93,26.63,0,11.18-5.74,18.98-13.83,22.95,11.62,3.24,19.28,11.92,19.28,25.6Zm-73.86-63.27v32.96h30.16c15.01,0,23.54-5.59,23.54-16.48s-8.53-16.48-23.54-16.48h-30.16Zm59,62.09c0-11.92-8.83-17.21-25.16-17.21h-33.84v34.28h33.84c16.33,0,25.16-5.15,25.16-17.07Z"/>
          <path class="cls-1" d="m1358.69,116.95v12.8h-74.75V26.75h72.69v12.8h-57.97v31.64h51.65v12.51h-51.65v33.25h60.03Z"/>
        </g>
      </g>
      <path class="cls-2" d="m121.61,36.66v84.94H36.66v36.66h121.61v-90.69l-36.66-30.91ZM0,0v90.56l36.66,30.91V36.66h84.94V0H0Z"/>
    </g>
  </g>
</svg>