<?xml version="1.0" encoding="UTF-8"?>
<svg id="Layer_2" data-name="Layer 2" xmlns="http://www.w3.org/2000/svg" viewBox="0 0 586.8 266.83">
  <defs>
    <style>
      .cls-1 {
        stroke-width: 0px;
      }
    </style>
  </defs>
  <g id="Layer_1-2" data-name="Layer 1">
    <g>
      <g>
        <path class="cls-1" d="m65.63,103l-19.87-28.69h-21.92v28.69H0V0h44.58c27.52,0,44.73,14.27,44.73,37.38,0,15.45-7.8,26.78-21.19,32.52l23.1,33.11h-25.6ZM43.26,19.42h-19.42v35.9h19.42c14.57,0,21.92-6.77,21.92-17.95s-7.36-17.95-21.92-17.95Z"/>
        <path class="cls-1" d="m134.63,57.68V0h23.84v56.8c0,19.57,8.53,27.66,22.95,27.66s22.95-8.09,22.95-27.66V0h23.54v57.68c0,30.31-17.36,47.09-46.64,47.09s-46.64-16.77-46.64-47.09Z"/>
        <path class="cls-1" d="m373.3,74.9c0,17.8-14.13,28.1-41.2,28.1h-53.27V0h50.32c25.75,0,38.99,10.74,38.99,26.78,0,10.3-5.3,18.25-13.68,22.66,11.48,3.68,18.83,12.51,18.83,25.46Zm-70.78-56.94v24.28h23.69c11.62,0,17.95-4.12,17.95-12.21s-6.33-12.07-17.95-12.07h-23.69Zm46.79,54.44c0-8.68-6.62-12.8-18.98-12.8h-27.81v25.46h27.81c12.36,0,18.98-3.83,18.98-12.65Z"/>
        <path class="cls-1" d="m418.77,0h23.84v103h-23.84V0Z"/>
        <path class="cls-1" d="m559.29,103l-24.87-35.76-24.43,35.76h-27.37l38.11-52.38L484.54,0h27.08l23.69,33.4L558.55,0h25.75l-35.9,49.74,38.4,53.27h-27.52Z"/>
      </g>
      <g>
        <polygon class="cls-1" points="84.77 141.82 17.66 210.84 17.66 141.82 0 141.82 0 265.41 17.66 265.41 17.66 233.44 104.88 141.82 84.77 141.82"/>
        <polygon class="cls-1" points="62.89 210.52 40.26 210.52 87.58 265.41 108.27 265.41 62.89 210.52"/>
        <path class="cls-1" d="m156.99,212.09v-70.28h17.66v69.58c0,27.37,12.54,39.73,34.79,39.73s34.96-12.36,34.96-39.73v-69.58h17.13v70.28c0,35.85-19.6,54.74-52.27,54.74s-52.27-18.9-52.27-54.74Z"/>
        <path class="cls-1" d="m436.88,232.04c0,21.19-16.07,33.38-47.33,33.38h-58.98v-123.61h55.45c28.43,0,44.32,12.01,44.32,31.96,0,13.42-6.89,22.78-16.6,27.55,13.95,3.89,23.13,14.3,23.13,30.73Zm-88.65-75.93v39.56h36.2c18.01,0,28.25-6.71,28.25-19.78s-10.24-19.78-28.25-19.78h-36.2Zm70.81,74.52c0-14.3-10.59-20.66-30.2-20.66h-40.62v41.14h40.62c19.6,0,30.2-6.18,30.2-20.48Z"/>
        <path class="cls-1" d="m586.8,250.06v15.36h-89.71v-123.61h87.23v15.36h-69.58v37.97h61.98v15.01h-61.98v39.91h72.05Z"/>
      </g>
    </g>
  </g>
</svg>